<svg xmlns="http://www.w3.org/2000/svg" xmlns:xlink="http://www.w3.org/1999/xlink" width="500" zoomAndPan="magnify" viewBox="0 0 375 374.999991" height="500" preserveAspectRatio="xMidYMid meet" version="1.0"><defs><clipPath id="1c26819b9c"><path d="M 0 0 L 269 0 L 269 273 L 0 273 Z M 0 0 " clip-rule="nonzero"/></clipPath><clipPath id="1be0c39c98"><path d="M -98.683594 -104.15625 L 268.976562 6.664062 L 172.007812 328.367188 L -195.652344 217.546875 Z M -98.683594 -104.15625 " clip-rule="nonzero"/></clipPath></defs><rect x="-37.5" width="450" fill="#ffffff" y="-37.499999" height="449.999989" fill-opacity="1"/><rect x="-37.5" width="450" fill="#ffffff" y="-37.499999" height="449.999989" fill-opacity="1"/><rect x="-37.5" width="450" fill="#006837" y="-37.499999" height="449.999989" fill-opacity="1"/><path fill="#8cc63f" d="M -43.660156 276.636719 C -184.515625 118.074219 -22.546875 -114.851562 81.285156 -18.5 C 215.777344 105.632812 -46.265625 181.441406 -43.660156 276.636719 Z M -43.660156 276.636719 " fill-opacity="1" fill-rule="nonzero"/><path fill="#f7ffed" d="M -38.167969 151.925781 C -50.023438 144.402344 -63.328125 122.414062 -62.75 101.871094 C -62.460938 82.195312 -53.207031 58.46875 -26.019531 30.402344 C -0.566406 4.359375 20.257812 2.914062 35.589844 8.699219 C 75.210938 -40.488281 182.808594 -116.007812 207.96875 -56.113281 C 224.746094 -16.183594 118.019531 -13.867188 67.402344 39.082031 C 80.417969 63.675781 74.054688 86.824219 48.023438 120.386719 C 35.878906 136.300781 22.574219 148.453125 9.269531 154.820312 C -7.21875 162.632812 -26.019531 159.738281 -38.167969 151.925781 Z M -38.167969 151.925781 " fill-opacity="1" fill-rule="nonzero"/><path fill="#ffffff" d="M -26.019531 144.980469 C 4.640625 159.160156 56.414062 106.789062 56.125 72.644531 C 48.890625 109.683594 0.878906 145.273438 -26.019531 144.980469 Z M -26.019531 144.980469 " fill-opacity="1" fill-rule="nonzero"/><path fill="#8cc63f" d="M 271.023438 0.597656 C 411.589844 159.160156 249.910156 391.792969 146.074219 295.730469 C 11.582031 171.601562 273.625 95.792969 271.023438 0.597656 Z M 271.023438 0.597656 " fill-opacity="1" fill-rule="nonzero"/><path fill="#f7ffed" d="M 218.382812 122.414062 C 226.769531 118.363281 234.867188 126.753906 231.109375 135.144531 C 222.140625 155.109375 207.390625 174.785156 192.351562 191.277344 C 189.75 194.171875 189.457031 198.222656 191.195312 201.40625 C 191.484375 202.273438 192.0625 202.851562 192.929688 203.429688 C 196.402344 206.613281 201.605469 206.035156 205.078125 202.851562 C 223.589844 186.070312 241.808594 158.292969 252.511719 130.226562 C 254.535156 125.015625 261.1875 123.570312 265.527344 127.042969 C 270.15625 130.804688 271.890625 136.878906 270.15625 142.378906 C 262.054688 168.128906 242.675781 201.117188 220.117188 225.710938 C 217.515625 228.601562 217.226562 232.652344 218.960938 235.835938 C 219.25 236.707031 219.828125 237.285156 220.695312 237.863281 C 224.167969 241.046875 229.371094 240.464844 232.84375 237.285156 C 250.488281 221.371094 266.972656 198.511719 276.808594 172.46875 C 279.410156 165.527344 290.402344 167.839844 290.402344 175.363281 C 290.402344 195.039062 280.855469 218.765625 253.667969 246.832031 C 228.214844 272.875 207.390625 274.320312 192.0625 268.535156 C 152.4375 317.722656 44.84375 393.242188 19.679688 333.347656 C 2.90625 293.417969 109.632812 291.101562 160.246094 238.152344 C 147.230469 213.558594 153.59375 190.410156 179.625 156.84375 C 191.773438 141.222656 205.078125 129.066406 218.382812 122.414062 Z M 218.382812 122.414062 " fill-opacity="1" fill-rule="nonzero"/><path fill="#ffffff" d="M 202.472656 265.929688 C 218.09375 271.136719 248.75 249.726562 253.089844 231.785156 C 246.148438 248.277344 216.648438 265.351562 202.472656 265.929688 Z M 202.472656 265.929688 " fill-opacity="1" fill-rule="nonzero"/><g clip-path="url(#1c26819b9c)"><g clip-path="url(#1be0c39c98)"><path fill="#006837" d="M -11.820312 272.957031 L 268.976562 6.664062 L -98.683594 -104.15625 L -11.820312 272.957031 " fill-opacity="1" fill-rule="nonzero"/></g></g></svg>